# xmcd
#
# Track frame offsets:
#	150
#	17290
#	33015
#	50709
#	71053
#	92831
#	106945
#	127019
#	147141
#	162607
#	183129
#	205807
#
# Disc length: 2971 seconds
#
# Revision: 1
# Processed by: cddbd v1.5.2PL0 Copyright (c) Steve Scherf et al.
# Submitted via: Rip'N'TagIt 1.5.0.0 
#
DISCID=a00b990c
DTITLE=Javier Zalba - Bariton Cha
DYEAR=2006
DGENRE=Jazz
TTITLE0=01)My Peterssen
TTITLE1=02)Barbarito's Dance
TTITLE2=03)Antes de Llegar a Jaguey
TTITLE3=04)Aire Sureno
TTITLE4=05)Bariton Cha
TTITLE5=06)72 a St
TTITLE6=07)Zaida
TTITLE7=08)Maria Eugenia
TTITLE8=09)Bariton Fast
TTITLE9=10)Latin in Marciac
TTITLE10=11)Habanera
TTITLE11=12)Uno de Tres Caminos
EXTD=YEAR: 2006
EXTT0=
EXTT1=
EXTT2=
EXTT3=
EXTT4=
EXTT5=
EXTT6=
EXTT7=
EXTT8=
EXTT9=
EXTT10=
EXTT11=
PLAYORDER=
